<?xml version="1.0" encoding="UTF-8"?>
<!DOCTYPE svg PUBLIC "-//W3C//DTD SVG 1.1//EN" "http://www.w3.org/Graphics/SVG/1.1/DTD/svg11.dtd">
<svg xmlns="http://www.w3.org/2000/svg" version="1.1" width="500px" height="500px" style="shape-rendering:geometricPrecision; text-rendering:geometricPrecision; image-rendering:optimizeQuality; fill-rule:evenodd; clip-rule:evenodd" xmlns:xlink="http://www.w3.org/1999/xlink">
<g><path style="opacity:0.528" fill="#f5d993" d="M 236.5,77.5 C 236.167,77.5 235.833,77.5 235.5,77.5C 235.5,63.1667 235.5,48.8333 235.5,34.5C 192.167,34.5 148.833,34.5 105.5,34.5C 105.5,131.5 105.5,228.5 105.5,325.5C 104.501,228.335 104.167,131.001 104.5,33.5C 148.5,33.5 192.5,33.5 236.5,33.5C 236.5,48.1667 236.5,62.8333 236.5,77.5 Z"/></g>
<g><path style="opacity:1" fill="#e8af23" d="M 169.5,77.5 C 169.5,101.833 169.5,126.167 169.5,150.5C 185.658,151.496 201.991,151.83 218.5,151.5C 218.5,165.167 218.5,178.833 218.5,192.5C 202.026,193.124 185.693,193.79 169.5,194.5C 169.5,223.5 169.5,252.5 169.5,281.5C 169.5,281.833 169.5,282.167 169.5,282.5C 190.996,283.332 212.663,283.832 234.5,284C 235.49,297.421 235.823,310.921 235.5,324.5C 192.5,324.5 149.5,324.5 106.5,324.5C 106.5,228.167 106.5,131.833 106.5,35.5C 149.167,35.5 191.833,35.5 234.5,35.5C 234.5,49.1667 234.5,62.8333 234.5,76.5C 212.66,76.1693 190.994,76.5027 169.5,77.5 Z"/></g>
<g><path style="opacity:1" fill="#dfaf3f" d="M 235.5,77.5 C 213.5,77.5 191.5,77.5 169.5,77.5C 190.994,76.5027 212.66,76.1693 234.5,76.5C 234.5,62.8333 234.5,49.1667 234.5,35.5C 191.833,35.5 149.167,35.5 106.5,35.5C 106.5,131.833 106.5,228.167 106.5,324.5C 149.5,324.5 192.5,324.5 235.5,324.5C 235.823,310.921 235.49,297.421 234.5,284C 212.663,283.832 190.996,283.332 169.5,282.5C 191.833,282.5 214.167,282.5 236.5,282.5C 236.5,296.833 236.5,311.167 236.5,325.5C 192.833,325.5 149.167,325.5 105.5,325.5C 105.5,228.5 105.5,131.5 105.5,34.5C 148.833,34.5 192.167,34.5 235.5,34.5C 235.5,48.8333 235.5,63.1667 235.5,77.5 Z"/></g>
<g><path style="opacity:0.259" fill="#fef0bc" d="M 169.5,77.5 C 191.5,77.5 213.5,77.5 235.5,77.5C 235.833,77.5 236.167,77.5 236.5,77.5C 214.673,78.4974 192.673,78.8307 170.5,78.5C 170.5,102.167 170.5,125.833 170.5,149.5C 187.342,149.17 204.008,149.503 220.5,150.5C 220.167,150.5 219.833,150.5 219.5,150.5C 202.833,150.5 186.167,150.5 169.5,150.5C 169.5,126.167 169.5,101.833 169.5,77.5 Z"/></g>
<g><path style="opacity:1" fill="#dbaf41" d="M 169.5,150.5 C 186.167,150.5 202.833,150.5 219.5,150.5C 219.5,165.167 219.5,179.833 219.5,194.5C 202.833,194.5 186.167,194.5 169.5,194.5C 185.693,193.79 202.026,193.124 218.5,192.5C 218.5,178.833 218.5,165.167 218.5,151.5C 201.991,151.83 185.658,151.496 169.5,150.5 Z"/></g>
<g><path style="opacity:1" fill="#e8b023" d="M 387.5,229.5 C 385.345,231.617 384.345,234.284 384.5,237.5C 384.5,237.833 384.5,238.167 384.5,238.5C 383.25,238.577 382.417,239.244 382,240.5C 381.304,243.478 380.804,246.478 380.5,249.5C 379.542,249.953 378.708,250.619 378,251.5C 377.503,253.81 377.337,256.143 377.5,258.5C 376.504,258.414 375.671,258.748 375,259.5C 373.55,267.049 371.217,274.383 368,281.5C 367.505,283.473 367.338,285.473 367.5,287.5C 365.72,288.99 365.054,290.99 365.5,293.5C 362.447,298.667 360.447,304.334 359.5,310.5C 359.072,313.785 358.072,316.785 356.5,319.5C 354.72,320.99 354.054,322.99 354.5,325.5C 352.72,326.99 352.054,328.99 352.5,331.5C 349.099,335.356 347.433,340.023 347.5,345.5C 347.5,345.833 347.5,346.167 347.5,346.5C 346.542,346.953 345.708,347.619 345,348.5C 344.304,351.478 343.804,354.478 343.5,357.5C 340.075,360.687 338.741,364.687 339.5,369.5C 339.5,369.833 339.5,370.167 339.5,370.5C 336.508,373.599 334.341,377.266 333,381.5C 332.281,385.145 331.781,388.812 331.5,392.5C 330.25,392.577 329.417,393.244 329,394.5C 328.39,397.827 327.89,401.161 327.5,404.5C 325.72,405.99 325.054,407.99 325.5,410.5C 323.386,411.36 322.22,413.027 322,415.5C 321.28,417.112 321.446,418.612 322.5,420C 346.498,420.5 370.498,420.667 394.5,420.5C 394.5,423.5 394.5,426.5 394.5,429.5C 393.5,429.5 392.5,429.5 391.5,429.5C 391.666,438.839 391.5,448.173 391,457.5C 389.82,458.684 388.32,459.351 386.5,459.5C 346.441,460.486 306.441,460.82 266.5,460.5C 265.252,459.96 264.085,459.293 263,458.5C 262.5,446.505 262.333,434.505 262.5,422.5C 262.704,419.482 263.037,416.482 263.5,413.5C 263.5,413.167 263.5,412.833 263.5,412.5C 265.941,410.925 267.107,408.592 267,405.5C 268.964,403.125 270.464,400.459 271.5,397.5C 272.843,391.162 274.176,384.829 275.5,378.5C 275.5,378.167 275.5,377.833 275.5,377.5C 276.458,377.047 277.292,376.381 278,375.5C 278.696,372.522 279.196,369.522 279.5,366.5C 279.5,366.167 279.5,365.833 279.5,365.5C 280.458,365.047 281.292,364.381 282,363.5C 283.418,358.243 285.418,353.243 288,348.5C 288.548,344.83 289.048,341.163 289.5,337.5C 289.5,337.167 289.5,336.833 289.5,336.5C 290.458,336.047 291.292,335.381 292,334.5C 292.696,331.522 293.196,328.522 293.5,325.5C 293.5,325.167 293.5,324.833 293.5,324.5C 294.458,324.047 295.292,323.381 296,322.5C 296.696,319.522 297.196,316.522 297.5,313.5C 297.5,313.167 297.5,312.833 297.5,312.5C 298.458,312.047 299.292,311.381 300,310.5C 300.696,307.522 301.196,304.522 301.5,301.5C 303.232,298.525 305.065,295.525 307,292.5C 308.352,285.157 310.685,278.157 314,271.5C 314.497,268.854 314.664,266.187 314.5,263.5C 316.585,261.316 317.585,258.649 317.5,255.5C 317.767,253.035 318.434,250.701 319.5,248.5C 320.458,248.047 321.292,247.381 322,246.5C 322.696,243.522 323.196,240.522 323.5,237.5C 323.5,237.167 323.5,236.833 323.5,236.5C 324.458,236.047 325.292,235.381 326,234.5C 326.696,231.522 327.196,228.522 327.5,225.5C 327.5,225.167 327.5,224.833 327.5,224.5C 329.48,222.105 330.813,219.271 331.5,216C 331.43,215.235 331.097,214.735 330.5,214.5C 308.673,213.503 286.673,213.169 264.5,213.5C 264.5,199.833 264.5,186.167 264.5,172.5C 307.167,172.5 349.833,172.5 392.5,172.5C 392.832,185.184 392.499,197.851 391.5,210.5C 389.264,216.657 387.93,222.99 387.5,229.5 Z"/></g>
<g><path style="opacity:0.082" fill="#fef2b9" d="M 394.5,208.5 C 394.813,196.087 394.479,183.753 393.5,171.5C 393.81,170.262 394.31,170.262 395,171.5C 395.827,184.007 395.66,196.34 394.5,208.5 Z"/></g>
<g><path style="opacity:0.259" fill="#f9e8ad" d="M 219.5,150.5 C 219.833,150.5 220.167,150.5 220.5,150.5C 220.5,165.5 220.5,180.5 220.5,195.5C 203.833,195.5 187.167,195.5 170.5,195.5C 170.5,224.167 170.5,252.833 170.5,281.5C 170.167,281.5 169.833,281.5 169.5,281.5C 169.5,252.5 169.5,223.5 169.5,194.5C 186.167,194.5 202.833,194.5 219.5,194.5C 219.5,179.833 219.5,165.167 219.5,150.5 Z"/></g>
<g><path style="opacity:1" fill="#e6be67" d="M 393.5,171.5 C 394.479,183.753 394.813,196.087 394.5,208.5C 394.737,209.791 394.404,210.791 393.5,211.5C 391.72,212.99 391.054,214.99 391.5,217.5C 390.739,221.784 389.405,225.784 387.5,229.5C 387.93,222.99 389.264,216.657 391.5,210.5C 392.499,197.851 392.832,185.184 392.5,172.5C 349.833,172.5 307.167,172.5 264.5,172.5C 264.5,186.167 264.5,199.833 264.5,213.5C 286.673,213.169 308.673,213.503 330.5,214.5C 308.167,214.5 285.833,214.5 263.5,214.5C 263.5,200.167 263.5,185.833 263.5,171.5C 306.837,170.236 350.17,170.236 393.5,171.5 Z"/></g>
<g><path style="opacity:0.965" fill="#e8d17a" d="M 393.5,211.5 C 393.405,213.786 392.738,215.786 391.5,217.5C 391.054,214.99 391.72,212.99 393.5,211.5 Z"/></g>
<g><path style="opacity:0.528" fill="#f8db95" d="M 263.5,171.5 C 263.5,185.833 263.5,200.167 263.5,214.5C 285.833,214.5 308.167,214.5 330.5,214.5C 331.097,214.735 331.43,215.235 331.5,216C 330.813,219.271 329.48,222.105 327.5,224.5C 328.202,221.56 329.202,218.727 330.5,216C 307.836,215.5 285.169,215.333 262.5,215.5C 262.171,200.657 262.504,185.99 263.5,171.5 Z"/></g>
<g><path style="opacity:0.863" fill="#ebd07e" d="M 387.5,229.5 C 386.871,232.397 385.871,235.064 384.5,237.5C 384.345,234.284 385.345,231.617 387.5,229.5 Z"/></g>
<g><path style="opacity:1" fill="#e9c16b" d="M 327.5,225.5 C 327.196,228.522 326.696,231.522 326,234.5C 325.292,235.381 324.458,236.047 323.5,236.5C 324.462,232.605 325.796,228.939 327.5,225.5 Z"/></g>
<g><path style="opacity:1" fill="#eac771" d="M 384.5,238.5 C 383.538,242.395 382.204,246.061 380.5,249.5C 380.804,246.478 381.304,243.478 382,240.5C 382.417,239.244 383.25,238.577 384.5,238.5 Z"/></g>
<g><path style="opacity:1" fill="#e4c064" d="M 323.5,237.5 C 323.196,240.522 322.696,243.522 322,246.5C 321.292,247.381 320.458,248.047 319.5,248.5C 320.462,244.605 321.796,240.939 323.5,237.5 Z"/></g>
<g><path style="opacity:0.945" fill="#eac974" d="M 380.5,249.5 C 380.072,252.785 379.072,255.785 377.5,258.5C 377.337,256.143 377.503,253.81 378,251.5C 378.708,250.619 379.542,249.953 380.5,249.5 Z"/></g>
<g><path style="opacity:0.996" fill="#e9d084" d="M 317.5,255.5 C 317.585,258.649 316.585,261.316 314.5,263.5C 314.733,260.458 315.733,257.792 317.5,255.5 Z"/></g>
<g><path style="opacity:1" fill="#ebc672" d="M 377.5,258.5 C 374.541,268.379 371.208,278.046 367.5,287.5C 367.338,285.473 367.505,283.473 368,281.5C 371.217,274.383 373.55,267.049 375,259.5C 375.671,258.748 376.504,258.414 377.5,258.5 Z"/></g>
<g><path style="opacity:1" fill="#e5be5e" d="M 314.5,263.5 C 314.664,266.187 314.497,268.854 314,271.5C 310.685,278.157 308.352,285.157 307,292.5C 305.065,295.525 303.232,298.525 301.5,301.5C 305.463,288.61 309.796,275.943 314.5,263.5 Z"/></g>
<g><path style="opacity:0.514" fill="#f8da8f" d="M 169.5,282.5 C 169.5,282.167 169.5,281.833 169.5,281.5C 169.833,281.5 170.167,281.5 170.5,281.5C 192.833,281.5 215.167,281.5 237.5,281.5C 237.829,296.343 237.496,311.01 236.5,325.5C 236.5,311.167 236.5,296.833 236.5,282.5C 214.167,282.5 191.833,282.5 169.5,282.5 Z"/></g>
<g><path style="opacity:0.945" fill="#ebcb7c" d="M 367.5,287.5 C 367.405,289.786 366.738,291.786 365.5,293.5C 365.054,290.99 365.72,288.99 367.5,287.5 Z"/></g>
<g><path style="opacity:0.875" fill="#efd28f" d="M 365.5,293.5 C 364.269,299.532 362.269,305.199 359.5,310.5C 360.447,304.334 362.447,298.667 365.5,293.5 Z"/></g>
<g><path style="opacity:1" fill="#eac773" d="M 301.5,301.5 C 301.196,304.522 300.696,307.522 300,310.5C 299.292,311.381 298.458,312.047 297.5,312.5C 298.462,308.605 299.796,304.939 301.5,301.5 Z"/></g>
<g><path style="opacity:0.996" fill="#ebc369" d="M 297.5,313.5 C 297.196,316.522 296.696,319.522 296,322.5C 295.292,323.381 294.458,324.047 293.5,324.5C 294.462,320.605 295.796,316.939 297.5,313.5 Z"/></g>
<g><path style="opacity:0.953" fill="#ebc97b" d="M 356.5,319.5 C 356.405,321.786 355.738,323.786 354.5,325.5C 354.054,322.99 354.72,320.99 356.5,319.5 Z"/></g>
<g><path style="opacity:0.941" fill="#edce7e" d="M 354.5,325.5 C 354.405,327.786 353.738,329.786 352.5,331.5C 352.054,328.99 352.72,326.99 354.5,325.5 Z"/></g>
<g><path style="opacity:1" fill="#e7c165" d="M 293.5,325.5 C 293.196,328.522 292.696,331.522 292,334.5C 291.292,335.381 290.458,336.047 289.5,336.5C 290.462,332.605 291.796,328.939 293.5,325.5 Z"/></g>
<g><path style="opacity:1" fill="#ebc771" d="M 352.5,331.5 C 351.602,336.534 349.935,341.201 347.5,345.5C 347.433,340.023 349.099,335.356 352.5,331.5 Z"/></g>
<g><path style="opacity:1" fill="#e8c165" d="M 289.5,337.5 C 289.048,341.163 288.548,344.83 288,348.5C 285.418,353.243 283.418,358.243 282,363.5C 281.292,364.381 280.458,365.047 279.5,365.5C 282.265,355.864 285.599,346.531 289.5,337.5 Z"/></g>
<g><path style="opacity:0.988" fill="#e5c46a" d="M 347.5,346.5 C 346.538,350.395 345.204,354.061 343.5,357.5C 343.804,354.478 344.304,351.478 345,348.5C 345.708,347.619 346.542,346.953 347.5,346.5 Z"/></g>
<g><path style="opacity:0.933" fill="#e9ca76" d="M 343.5,357.5 C 342.739,361.784 341.405,365.784 339.5,369.5C 338.741,364.687 340.075,360.687 343.5,357.5 Z"/></g>
<g><path style="opacity:1" fill="#e7c16b" d="M 279.5,366.5 C 279.196,369.522 278.696,372.522 278,375.5C 277.292,376.381 276.458,377.047 275.5,377.5C 276.462,373.605 277.796,369.939 279.5,366.5 Z"/></g>
<g><path style="opacity:1" fill="#e7bf60" d="M 339.5,370.5 C 337.007,377.985 334.341,385.318 331.5,392.5C 331.781,388.812 332.281,385.145 333,381.5C 334.341,377.266 336.508,373.599 339.5,370.5 Z"/></g>
<g><path style="opacity:0.996" fill="#edd28b" d="M 271.5,390.5 C 271.23,394.358 269.897,397.691 267.5,400.5C 268.267,396.851 269.6,393.518 271.5,390.5 Z"/></g>
<g><path style="opacity:1" fill="#ecc572" d="M 331.5,392.5 C 330.739,396.784 329.405,400.784 327.5,404.5C 327.89,401.161 328.39,397.827 329,394.5C 329.417,393.244 330.25,392.577 331.5,392.5 Z"/></g>
<g><path style="opacity:1" fill="#e3b74e" d="M 275.5,378.5 C 274.176,384.829 272.843,391.162 271.5,397.5C 270.464,400.459 268.964,403.125 267,405.5C 267.107,408.592 265.941,410.925 263.5,412.5C 264.637,408.421 265.971,404.421 267.5,400.5C 269.897,397.691 271.23,394.358 271.5,390.5C 272.261,386.216 273.595,382.216 275.5,378.5 Z"/></g>
<g><path style="opacity:0.922" fill="#eed185" d="M 327.5,404.5 C 327.405,406.786 326.738,408.786 325.5,410.5C 325.054,407.99 325.72,405.99 327.5,404.5 Z"/></g>
<g><path style="opacity:0.568" fill="#f3d180" d="M 263.5,413.5 C 263.037,416.482 262.704,419.482 262.5,422.5C 261.883,422.611 261.383,422.944 261,423.5C 260.5,436.496 260.333,449.496 260.5,462.5C 260.5,462.833 260.5,463.167 260.5,463.5C 259.339,450.006 259.173,436.34 260,422.5C 260.9,419.282 262.067,416.282 263.5,413.5 Z"/></g>
<g><path style="opacity:1" fill="#e5b02c" d="M 262.5,422.5 C 262.333,434.505 262.5,446.505 263,458.5C 264.085,459.293 265.252,459.96 266.5,460.5C 306.441,460.82 346.441,460.486 386.5,459.5C 388.32,459.351 389.82,458.684 391,457.5C 391.5,448.173 391.666,438.839 391.5,429.5C 392.5,429.5 393.5,429.5 394.5,429.5C 394.5,440.5 394.5,451.5 394.5,462.5C 349.833,462.5 305.167,462.5 260.5,462.5C 260.333,449.496 260.5,436.496 261,423.5C 261.383,422.944 261.883,422.611 262.5,422.5 Z"/></g>
<g><path style="opacity:0.788" fill="#edca7a" d="M 325.5,410.5 C 324.361,413.425 323.861,416.425 324,419.5C 347.663,418.631 371.496,418.298 395.5,418.5C 395.5,433.5 395.5,448.5 395.5,463.5C 350.666,463.523 305.666,463.523 260.5,463.5C 260.5,463.167 260.5,462.833 260.5,462.5C 305.167,462.5 349.833,462.5 394.5,462.5C 394.5,451.5 394.5,440.5 394.5,429.5C 394.5,426.5 394.5,423.5 394.5,420.5C 370.498,420.667 346.498,420.5 322.5,420C 321.446,418.612 321.28,417.112 322,415.5C 322.22,413.027 323.386,411.36 325.5,410.5 Z"/></g>
</svg>
